{
  "accessors": [
    {
      "bufferView": 2,
      "componentType": 5126,
      "count": 2026,
      "max": [
        21.835592269897461,
        18.571590423583984,
        25.64271354675293
      ],
      "min": [
        -35.412891387939453,
        -13.048412322998047,
        -26.104192733764648
      ],
      "type": "VEC3"
    },
    {
      "bufferView": 2,
      "byteOffset": 24312,
      "componentType": 5126,
      "count": 2026,
      "max": [
        1,
        0.99999696016311646,
        1
      ],
      "min": [
        -1,
        -1,
        -1
      ],
      "type": "VEC3"
    },
    {
      "bufferView": 3,
      "componentType": 5126,
      "count": 2026,
      "max": [
        1,
        1,
        0.99999719858169556,
        1
      ],
      "min": [
        -0.9999997615814209,
        -0.99992471933364868,
        -0.99995070695877075,
        -1
      ],
      "type": "VEC4"
    },
    {
      "bufferView": 3,
      "byteOffset": 32416,
      "componentType": 5126,
      "count": 2026,
      "max": [
        1,
        0.98039215803146362,
        0.7137255072593689,
        1
      ],
      "min": [
        0.0039215688593685627,
        0.19215686619281769,
        0,
        1
      ],
      "type": "VEC4"
    },
    {
      "bufferView": 1,
      "componentType": 5126,
      "count": 2026,
      "max": [
        1,
        1.0278023481369019
      ],
      "min": [
        0,
        -0.027801940217614174
      ],
      "type": "VEC2"
    },
    {
      "bufferView": 0,
      "componentType": 5125,
      "count": 5013,
      "max": [
        2025
      ],
      "min": [
        0
      ],
      "type": "SCALAR"
    }
  ],
  "asset": {
    "extras": {
      "author": "Oleaf (https://sketchfab.com/homkahom0)",
      "license": "CC-BY-NC-4.0 (http://creativecommons.org/licenses/by-nc/4.0/)",
      "source": "https://sketchfab.com/3d-models/book-vertex-chameleon-study-51b0b3bdcd844a9e951a9ede6f192da8",
      "title": "Book - Vertex chameleon study"
    },
    "generator": "Sketchfab-6.47.0",
    "version": "2.0"
  },
  "bufferViews": [
    {
      "buffer": 0,
      "byteLength": 20052,
      "byteOffset": 0,
      "name": "floatBufferViews",
      "target": 34963
    },
    {
      "buffer": 0,
      "byteLength": 16208,
      "byteOffset": 20052,
      "byteStride": 8,
      "name": "floatBufferViews",
      "target": 34962
    },
    {
      "buffer": 0,
      "byteLength": 48624,
      "byteOffset": 36260,
      "byteStride": 12,
      "name": "floatBufferViews",
      "target": 34962
    },
    {
      "buffer": 0,
      "byteLength": 64832,
      "byteOffset": 84884,
      "byteStride": 16,
      "name": "floatBufferViews",
      "target": 34962
    }
  ],
  "buffers": [
    {
      "byteLength": 149716,
      "uri": "scene.bin"
    }
  ],
  "extensionsUsed": [
    "KHR_materials_unlit"
  ],
  "materials": [
    {
      "doubleSided": true,
      "emissiveFactor": [
        0,
        0,
        0
      ],
      "extensions": {
        "KHR_materials_unlit": {}
      },
      "name": "01_-_Default",
      "pbrMetallicRoughness": {
        "baseColorFactor": [
          0.58823499999999995,
          0.58823499999999995,
          0.58823499999999995,
          1
        ],
        "metallicFactor": 0,
        "roughnessFactor": 1
      }
    }
  ],
  "meshes": [
    {
      "name": "Box001_01 - Default_0",
      "primitives": [
        {
          "attributes": {
            "COLOR_0": 3,
            "NORMAL": 1,
            "POSITION": 0,
            "TANGENT": 2,
            "TEXCOORD_0": 4
          },
          "indices": 5,
          "material": 0,
          "mode": 4
        }
      ]
    }
  ],
  "nodes": [
    {
      "children": [
        1
      ],
      "name": "RootNode (gltf orientation matrix)",
      "rotation": [
        -0.70710678118654746,
        -0,
        -0,
        0.70710678118654757
      ]
    },
    {
      "children": [
        2
      ],
      "name": "RootNode (model correction matrix)"
    },
    {
      "children": [
        3
      ],
      "matrix": [
        1,
        0,
        0,
        0,
        0,
        0,
        1,
        0,
        0,
        -1,
        0,
        0,
        0,
        0,
        0,
        1
      ],
      "name": "3e919daced1044518925c5c67f184b2b.fbx"
    },
    {
      "children": [
        4
      ],
      "name": "RootNode"
    },
    {
      "children": [
        5
      ],
      "matrix": [
        0.63121134042739868,
        0,
        0,
        0,
        0,
        0.68406641483305974,
        1.1144856809160262e-07,
        0,
        0,
        -1.1179899308444933e-07,
        0.68621730804442449,
        0,
        0,
        0.3544069230556488,
        0,
        1
      ],
      "name": "Box001"
    },
    {
      "mesh": 0,
      "name": "Box001_01 - Default_0"
    }
  ],
  "scene": 0,
  "scenes": [
    {
      "name": "OSG_Scene",
      "nodes": [
        0
      ]
    }
  ]
}

