<?xml version="1.0" encoding="UTF-8" ?>
<!DOCTYPE svg PUBLIC "-//W3C//DTD SVG 1.1//EN" "http://www.w3.org/Graphics/SVG/1.1/DTD/svg11.dtd">
<svg width="239pt" height="238pt" viewBox="0 0 239 238" version="1.1" xmlns="http://www.w3.org/2000/svg">
<g id="#69635e7a">
<path fill="#69635e" opacity="0.48" d=" M 106.01 8.51 C 108.24 7.80 110.55 7.65 112.94 8.05 L 112.94 8.74 C 111.69 9.15 110.41 9.40 109.10 9.50 C 108.33 9.25 106.79 8.76 106.01 8.51 Z" />
</g>
<g id="#a39ea0ba">
<path fill="#a39ea0" opacity="0.73" d=" M 112.94 8.05 C 120.37 8.01 127.85 7.70 135.25 8.69 C 127.81 9.00 120.37 9.08 112.94 8.74 L 112.94 8.05 Z" />
</g>
<g id="#adaaa5c2">
<path fill="#adaaa5" opacity="0.76" d=" M 97.71 9.69 C 100.43 8.99 103.23 8.87 106.01 8.51 C 106.79 8.76 108.33 9.25 109.10 9.50 C 105.31 9.75 101.51 9.81 97.71 9.69 Z" />
</g>
<g id="#e2e2e6fd">
<path fill="#e2e2e6" opacity="1.00" d=" M 109.10 9.50 C 110.41 9.40 111.69 9.15 112.94 8.74 C 120.37 9.08 127.81 9.00 135.25 8.69 C 139.79 8.43 143.17 11.78 145.87 14.99 C 146.53 16.65 147.25 18.28 148.06 19.86 C 146.12 21.43 144.80 23.53 143.74 25.76 C 141.03 29.22 137.43 32.57 137.00 37.19 C 135.55 34.54 133.76 32.04 130.99 30.65 C 131.38 29.84 131.77 29.02 132.17 28.21 C 134.03 25.64 132.71 23.22 129.55 23.50 C 123.13 26.40 124.47 14.05 119.21 18.21 C 119.73 20.92 121.21 23.37 122.14 25.96 C 118.06 26.59 114.06 27.53 110.10 28.67 C 104.31 25.10 110.94 16.57 104.41 13.55 C 100.89 9.25 95.34 12.36 90.71 11.85 C 93.02 11.07 95.33 10.26 97.71 9.69 C 101.51 9.81 105.31 9.75 109.10 9.50 Z" />
</g>
<g id="#f9faf6fe">
<path fill="#f9faf6" opacity="1.00" d=" M 90.71 11.85 C 95.34 12.36 100.89 9.25 104.41 13.55 C 110.94 16.57 104.31 25.10 110.10 28.67 C 114.06 27.53 118.06 26.59 122.14 25.96 C 125.58 26.22 128.91 27.16 132.17 28.21 C 131.77 29.02 131.38 29.84 130.99 30.65 C 127.01 29.74 122.65 28.75 124.00 33.93 C 122.97 36.74 123.23 39.19 124.79 41.26 L 125.03 42.20 C 125.00 45.13 127.94 45.13 130.12 45.14 C 130.40 47.42 130.12 49.71 130.05 51.99 C 129.75 52.17 129.14 52.51 128.84 52.68 C 122.22 53.17 110.66 53.31 109.75 61.86 C 109.32 63.85 107.35 64.78 105.84 65.85 C 100.88 68.39 95.57 70.73 91.67 74.82 C 82.71 82.45 74.96 91.41 67.72 100.66 C 63.71 105.74 60.07 111.13 55.89 116.08 C 52.82 118.05 49.80 120.09 46.81 122.17 C 45.21 120.53 43.35 119.01 42.52 116.80 C 42.55 116.30 42.62 115.30 42.65 114.81 C 43.46 113.11 43.71 110.35 41.30 109.94 C 34.87 104.68 39.14 95.05 37.72 87.75 C 37.93 86.08 38.29 84.43 38.79 82.82 C 40.75 81.91 40.40 79.57 39.76 77.92 C 39.87 77.22 40.09 75.83 40.19 75.13 C 40.33 73.57 40.61 70.44 40.75 68.88 C 41.61 59.71 45.51 51.23 48.79 42.74 C 51.24 42.57 52.70 40.33 51.83 38.01 C 54.43 34.94 57.09 31.91 59.81 28.93 C 62.98 28.04 65.00 25.39 66.94 22.92 C 67.18 22.69 67.66 22.24 67.90 22.02 C 70.22 21.49 71.85 19.81 73.06 17.86 C 76.39 15.60 80.08 13.97 83.86 12.61 C 85.53 13.38 87.62 13.62 89.07 12.25 C 89.48 12.15 90.30 11.95 90.71 11.85 Z" />
</g>
<g id="#c0bfbec1">
<path fill="#c0bfbe" opacity="0.76" d=" M 83.86 12.61 C 85.40 11.50 87.36 11.62 89.07 12.25 C 87.62 13.62 85.53 13.38 83.86 12.61 Z" />
</g>
<g id="#747c94f9">
<path fill="#747c94" opacity="0.98" d=" M 145.87 14.99 C 162.13 18.66 174.70 32.15 179.20 47.90 C 178.62 49.30 178.47 51.12 179.88 52.10 C 179.95 53.37 180.03 54.64 180.12 55.91 C 179.57 57.31 179.56 59.07 180.93 60.02 C 181.76 62.24 182.52 64.49 183.27 66.74 C 183.25 70.89 183.22 75.04 183.19 79.19 C 182.92 79.78 182.37 80.97 182.10 81.57 C 174.89 75.50 169.47 67.15 160.99 62.33 C 167.34 60.14 159.08 52.70 159.18 47.84 C 158.81 45.02 157.98 42.29 157.04 39.61 C 155.35 32.70 154.72 23.84 148.06 19.86 C 147.25 18.28 146.53 16.65 145.87 14.99 M 167.02 36.00 C 167.79 43.26 166.94 50.49 167.11 57.76 C 169.84 61.41 172.10 55.15 172.77 53.11 C 170.57 47.86 173.28 37.01 167.02 36.00 Z" />
</g>
<g id="#7a7a82ff">
<path fill="#7a7a82" opacity="1.00" d=" M 119.21 18.21 C 124.47 14.05 123.13 26.40 129.55 23.50 C 132.71 23.22 134.03 25.64 132.17 28.21 C 128.91 27.16 125.58 26.22 122.14 25.96 C 121.21 23.37 119.73 20.92 119.21 18.21 Z" />
</g>
<g id="#b2b1abb7">
<path fill="#b2b1ab" opacity="0.72" d=" M 67.90 22.02 C 69.20 20.16 70.87 18.58 73.06 17.86 C 71.85 19.81 70.22 21.49 67.90 22.02 Z" />
</g>
<g id="#b9bbc8ff">
<path fill="#b9bbc8" opacity="1.00" d=" M 148.06 19.86 C 154.72 23.84 155.35 32.70 157.04 39.61 C 155.37 42.04 152.90 44.61 153.11 47.74 C 154.61 49.58 157.21 47.71 159.18 47.84 C 159.08 52.70 167.34 60.14 160.99 62.33 C 156.63 59.64 152.46 56.64 147.83 54.43 C 154.13 51.37 147.60 48.04 146.01 44.11 C 147.32 42.48 151.15 42.60 150.80 40.09 C 148.59 35.25 145.91 30.63 143.74 25.76 C 144.80 23.53 146.12 21.43 148.06 19.86 Z" />
</g>
<g id="#a19e9aa4">
<path fill="#a19e9a" opacity="0.64" d=" M 59.81 28.93 C 61.90 26.62 64.17 24.41 66.94 22.92 C 65.00 25.39 62.98 28.04 59.81 28.93 Z" />
</g>
<g id="#cdcbd6ff">
<path fill="#cdcbd6" opacity="1.00" d=" M 137.00 37.19 C 137.43 32.57 141.03 29.22 143.74 25.76 C 145.91 30.63 148.59 35.25 150.80 40.09 C 151.15 42.60 147.32 42.48 146.01 44.11 C 147.60 48.04 154.13 51.37 147.83 54.43 C 142.10 52.32 136.02 52.46 130.05 51.99 C 130.12 49.71 130.40 47.42 130.12 45.14 C 135.36 48.33 138.51 41.59 137.00 37.19 Z" />
</g>
<g id="#6b6a74ff">
<path fill="#6b6a74" opacity="1.00" d=" M 124.00 33.93 C 122.65 28.75 127.01 29.74 130.99 30.65 C 133.76 32.04 135.55 34.54 137.00 37.19 C 138.51 41.59 135.36 48.33 130.12 45.14 C 126.11 41.28 135.38 38.80 130.80 35.19 C 126.14 30.93 128.34 40.43 125.03 42.20 L 124.79 41.26 C 126.23 38.19 125.97 35.74 124.00 33.93 Z" />
</g>
<g id="#acaeafff">
<path fill="#acaeaf" opacity="1.00" d=" M 124.00 33.93 C 125.97 35.74 126.23 38.19 124.79 41.26 C 123.23 39.19 122.97 36.74 124.00 33.93 Z" />
</g>
<g id="#cccdd5ff">
<path fill="#cccdd5" opacity="1.00" d=" M 125.03 42.20 C 128.34 40.43 126.14 30.93 130.80 35.19 C 135.38 38.80 126.11 41.28 130.12 45.14 C 127.94 45.13 125.00 45.13 125.03 42.20 Z" />
</g>
<g id="#bec2d5ff">
<path fill="#bec2d5" opacity="1.00" d=" M 167.02 36.00 C 173.28 37.01 170.57 47.86 172.77 53.11 C 172.10 55.15 169.84 61.41 167.11 57.76 C 166.94 50.49 167.79 43.26 167.02 36.00 Z" />
</g>
<g id="#c6c7c6ca">
<path fill="#c6c7c6" opacity="0.79" d=" M 48.79 42.74 C 49.28 40.87 50.49 39.35 51.83 38.01 C 52.70 40.33 51.24 42.57 48.79 42.74 Z" />
</g>
<g id="#989badff">
<path fill="#989bad" opacity="1.00" d=" M 153.11 47.74 C 152.90 44.61 155.37 42.04 157.04 39.61 C 157.98 42.29 158.81 45.02 159.18 47.84 C 157.21 47.71 154.61 49.58 153.11 47.74 Z" />
</g>
<g id="#413d4686">
<path fill="#413d46" opacity="0.53" d=" M 179.20 47.90 C 180.41 48.98 180.41 50.68 179.88 52.10 C 178.47 51.12 178.62 49.30 179.20 47.90 Z" />
</g>
<g id="#66656cfc">
<path fill="#66656c" opacity="1.00" d=" M 128.84 52.68 C 129.14 52.51 129.75 52.17 130.05 51.99 C 136.02 52.46 142.10 52.32 147.83 54.43 C 152.46 56.64 156.63 59.64 160.99 62.33 C 169.47 67.15 174.89 75.50 182.10 81.57 C 182.04 83.22 181.90 86.51 181.83 88.16 C 175.62 79.69 167.91 72.55 159.99 65.73 C 152.14 59.43 142.20 55.63 132.06 55.91 C 129.98 56.29 129.74 53.97 128.84 52.68 Z" />
</g>
<g id="#8a8283ff">
<path fill="#8a8283" opacity="1.00" d=" M 109.75 61.86 C 110.66 53.31 122.22 53.17 128.84 52.68 C 129.74 53.97 129.98 56.29 132.06 55.91 C 142.20 55.63 152.14 59.43 159.99 65.73 C 152.46 68.67 165.12 73.62 166.49 77.95 C 165.42 78.57 164.43 79.42 163.21 79.72 C 152.91 71.20 139.71 65.27 126.21 65.06 C 119.38 64.70 112.63 67.20 105.84 65.85 C 107.35 64.78 109.32 63.85 109.75 61.86 Z" />
</g>
<g id="#5a515497">
<path fill="#5a5154" opacity="0.59" d=" M 180.12 55.91 C 181.48 56.86 181.40 58.62 180.93 60.02 C 179.56 59.07 179.57 57.31 180.12 55.91 Z" />
</g>
<g id="#332b28ff">
<path fill="#332b28" opacity="1.00" d=" M 105.84 65.85 C 112.63 67.20 119.38 64.70 126.21 65.06 C 120.21 63.83 119.91 68.56 121.39 72.65 C 124.90 80.61 129.30 90.23 138.35 92.65 C 143.45 96.25 150.37 90.19 148.40 84.34 C 151.26 77.63 155.81 86.28 157.22 89.74 C 164.28 91.31 163.60 100.88 159.32 105.29 C 156.90 108.58 152.20 106.43 148.73 106.82 C 150.56 105.63 152.49 104.58 154.18 103.19 C 144.71 103.82 140.09 93.66 131.47 91.39 C 127.18 84.35 118.38 85.40 111.20 85.57 C 108.84 91.89 102.15 93.76 96.24 94.94 C 92.70 88.69 95.97 80.75 91.67 74.82 C 95.57 70.73 100.88 68.39 105.84 65.85 Z" />
</g>
<g id="#29251fff">
<path fill="#29251f" opacity="1.00" d=" M 126.21 65.06 C 139.71 65.27 152.91 71.20 163.21 79.72 C 164.43 79.42 165.42 78.57 166.49 77.95 C 177.97 87.73 180.04 103.02 187.35 115.22 C 187.57 116.36 187.76 117.50 187.92 118.65 C 183.28 123.50 183.53 132.03 177.76 135.48 C 177.12 132.90 177.78 130.28 177.86 127.68 C 178.36 117.16 162.96 119.07 156.19 119.09 C 157.15 117.98 158.46 116.85 157.95 115.21 C 149.62 111.49 140.00 117.78 131.86 113.92 C 133.31 111.97 135.18 110.40 137.02 108.82 C 140.81 107.61 144.78 107.19 148.73 106.82 C 152.20 106.43 156.90 108.58 159.32 105.29 C 163.60 100.88 164.28 91.31 157.22 89.74 C 155.81 86.28 151.26 77.63 148.40 84.34 C 150.37 90.19 143.45 96.25 138.35 92.65 C 129.30 90.23 124.90 80.61 121.39 72.65 C 119.91 68.56 120.21 63.83 126.21 65.06 Z" />
</g>
<g id="#cbc8c9fc">
<path fill="#cbc8c9" opacity="1.00" d=" M 166.49 77.95 C 165.12 73.62 152.46 68.67 159.99 65.73 C 167.91 72.55 175.62 79.69 181.83 88.16 C 182.74 90.00 183.61 91.86 184.26 93.81 C 183.75 95.46 184.51 97.13 185.96 98.01 C 187.20 100.91 188.41 103.84 189.34 106.86 C 188.66 108.23 188.41 110.14 189.89 111.11 C 189.87 111.57 189.84 112.50 189.83 112.96 C 189.02 113.74 188.20 114.49 187.35 115.22 C 180.04 103.02 177.97 87.73 166.49 77.95 Z" />
</g>
<g id="#1f1c2043">
<path fill="#1f1c20" opacity="0.26" d=" M 183.27 66.74 C 184.74 70.71 184.06 75.16 183.19 79.19 C 183.22 75.04 183.25 70.89 183.27 66.74 Z" />
</g>
<g id="#a6a5a3a7">
<path fill="#a6a5a3" opacity="0.65" d=" M 40.19 75.13 C 40.33 73.57 40.61 70.44 40.75 68.88 C 40.61 70.44 40.33 73.57 40.19 75.13 Z" />
</g>
<g id="#47342eff">
<path fill="#47342e" opacity="1.00" d=" M 67.72 100.66 C 74.96 91.41 82.71 82.45 91.67 74.82 C 95.97 80.75 92.70 88.69 96.24 94.94 C 102.15 93.76 108.84 91.89 111.20 85.57 C 118.38 85.40 127.18 84.35 131.47 91.39 C 140.09 93.66 144.71 103.82 154.18 103.19 C 152.49 104.58 150.56 105.63 148.73 106.82 C 144.78 107.19 140.81 107.61 137.02 108.82 C 131.48 109.19 126.17 111.08 121.11 113.27 C 120.36 118.52 124.51 122.71 124.05 127.89 C 117.11 132.42 109.06 130.63 101.91 127.90 C 103.13 131.93 109.38 133.47 108.14 138.84 C 106.77 138.35 105.36 138.34 104.01 138.88 C 100.77 137.93 97.62 136.62 94.25 136.19 C 89.84 134.13 85.25 132.59 80.31 132.97 C 73.55 133.05 66.08 127.84 59.70 132.07 C 58.36 132.75 57.03 133.49 55.93 134.52 C 51.75 140.06 57.69 146.34 58.91 151.80 C 58.31 152.15 57.11 152.84 56.51 153.19 C 52.29 145.24 46.40 138.85 41.61 131.27 C 41.72 130.38 41.95 128.61 42.06 127.72 C 45.64 130.03 49.97 133.97 54.27 130.51 C 57.88 129.13 61.55 127.89 65.29 126.94 C 71.43 125.69 77.53 124.30 83.78 123.70 C 85.61 120.61 82.28 117.33 82.84 113.96 C 87.75 113.88 97.35 119.21 99.01 112.08 C 92.07 101.13 76.34 109.55 67.72 100.66 Z" />
</g>
<g id="#c0c0bfc1">
<path fill="#c0c0bf" opacity="0.76" d=" M 38.79 82.82 C 38.62 81.13 38.64 79.30 39.76 77.92 C 40.40 79.57 40.75 81.91 38.79 82.82 Z" />
</g>
<g id="#dddddcde">
<path fill="#dddddc" opacity="0.87" d=" M 41.30 109.94 C 32.13 109.49 38.76 93.56 37.72 87.75 C 39.14 95.05 34.87 104.68 41.30 109.94 Z" />
</g>
<g id="#9a9698ad">
<path fill="#9a9698" opacity="0.68" d=" M 184.26 93.81 C 185.90 94.57 186.49 96.32 185.96 98.01 C 184.51 97.13 183.75 95.46 184.26 93.81 Z" />
</g>
<g id="#352e27ff">
<path fill="#352e27" opacity="1.00" d=" M 55.89 116.08 C 60.07 111.13 63.71 105.74 67.72 100.66 C 76.34 109.55 92.07 101.13 99.01 112.08 C 97.35 119.21 87.75 113.88 82.84 113.96 C 76.23 116.75 66.55 116.36 62.74 123.07 C 60.31 120.95 55.24 120.19 55.89 116.08 Z" />
</g>
<g id="#6b64658b">
<path fill="#6b6465" opacity="0.55" d=" M 189.34 106.86 C 190.38 108.04 190.40 109.68 189.89 111.11 C 188.41 110.14 188.66 108.23 189.34 106.86 Z" />
</g>
<g id="#3c2e27ff">
<path fill="#3c2e27" opacity="1.00" d=" M 121.11 113.27 C 126.17 111.08 131.48 109.19 137.02 108.82 C 135.18 110.40 133.31 111.97 131.86 113.92 C 140.00 117.78 149.62 111.49 157.95 115.21 C 158.46 116.85 157.15 117.98 156.19 119.09 C 154.33 119.71 152.41 120.49 152.95 122.85 C 156.22 124.30 160.17 123.81 163.11 126.13 C 160.62 131.30 154.62 126.95 150.27 128.22 C 147.47 129.46 147.10 132.98 144.69 134.67 C 139.59 135.99 134.27 136.28 129.10 137.20 C 130.09 141.32 128.12 147.07 131.75 150.16 C 134.04 153.62 141.62 153.11 136.69 157.99 C 134.08 158.14 131.50 158.44 128.89 158.40 C 125.73 153.48 123.76 148.03 123.40 142.14 C 125.42 138.51 124.05 134.17 125.30 130.32 C 129.58 124.50 137.98 124.94 143.87 121.81 C 145.03 117.45 137.36 121.93 135.89 121.74 C 131.22 122.36 128.07 125.93 124.05 127.89 C 124.51 122.71 120.36 118.52 121.11 113.27 Z" />
</g>
<g id="#8d8780b7">
<path fill="#8d8780" opacity="0.72" d=" M 41.30 109.94 C 43.71 110.35 43.46 113.11 42.65 114.81 L 41.99 114.72 C 41.75 113.12 41.53 111.53 41.30 109.94 Z" />
</g>
<g id="#81776fe9">
<path fill="#81776f" opacity="0.91" d=" M 187.35 115.22 C 188.20 114.49 189.02 113.74 189.83 112.96 C 190.20 114.28 190.65 115.58 191.14 116.87 C 191.12 117.39 191.09 118.44 191.08 118.97 C 190.29 118.89 188.71 118.73 187.92 118.65 C 187.76 117.50 187.57 116.36 187.35 115.22 Z" />
</g>
<g id="#59423dff">
<path fill="#59423d" opacity="1.00" d=" M 62.74 123.07 C 66.55 116.36 76.23 116.75 82.84 113.96 C 82.28 117.33 85.61 120.61 83.78 123.70 C 77.53 124.30 71.43 125.69 65.29 126.94 C 64.51 125.60 63.65 124.32 62.74 123.07 Z" />
</g>
<g id="#4d2f2a9f">
<path fill="#4d2f2a" opacity="0.62" d=" M 40.82 130.61 C 41.00 125.30 40.90 119.94 41.99 114.72 L 42.65 114.81 C 42.62 115.30 42.55 116.30 42.52 116.80 C 42.28 120.44 42.13 124.08 42.06 127.72 C 41.95 128.61 41.72 130.38 41.61 131.27 L 40.82 130.61 Z" />
</g>
<g id="#dbae93ff">
<path fill="#dbae93" opacity="1.00" d=" M 46.81 122.17 C 49.80 120.09 52.82 118.05 55.89 116.08 C 55.24 120.19 60.31 120.95 62.74 123.07 C 63.65 124.32 64.51 125.60 65.29 126.94 C 61.55 127.89 57.88 129.13 54.27 130.51 C 51.58 127.94 48.33 125.69 46.81 122.17 Z" />
</g>
<g id="#936554fe">
<path fill="#936554" opacity="1.00" d=" M 42.06 127.72 C 42.13 124.08 42.28 120.44 42.52 116.80 C 43.35 119.01 45.21 120.53 46.81 122.17 C 48.33 125.69 51.58 127.94 54.27 130.51 C 49.97 133.97 45.64 130.03 42.06 127.72 Z" />
</g>
<g id="#1f141073">
<path fill="#1f1410" opacity="0.45" d=" M 191.14 116.87 C 192.46 119.43 192.24 122.45 191.03 125.07 C 191.08 123.03 191.06 121.00 191.08 118.97 C 191.09 118.44 191.12 117.39 191.14 116.87 Z" />
</g>
<g id="#5a433bff">
<path fill="#5a433b" opacity="1.00" d=" M 156.19 119.09 C 162.96 119.07 178.36 117.16 177.86 127.68 C 177.02 135.04 169.49 131.94 166.67 137.70 C 163.89 141.93 158.23 140.50 153.95 141.78 C 149.05 142.04 144.12 141.59 139.25 142.20 C 135.63 145.32 140.87 149.41 141.19 153.00 C 137.87 152.71 134.85 151.25 131.75 150.16 C 128.12 147.07 130.09 141.32 129.10 137.20 C 134.27 136.28 139.59 135.99 144.69 134.67 C 147.10 132.98 147.47 129.46 150.27 128.22 C 154.62 126.95 160.62 131.30 163.11 126.13 C 160.17 123.81 156.22 124.30 152.95 122.85 C 152.41 120.49 154.33 119.71 156.19 119.09 Z" />
</g>
<g id="#403028f6">
<path fill="#403028" opacity="0.96" d=" M 177.76 135.48 C 183.53 132.03 183.28 123.50 187.92 118.65 C 188.71 118.73 190.29 118.89 191.08 118.97 C 191.06 121.00 191.08 123.03 191.03 125.07 C 187.83 131.39 186.48 138.44 184.41 145.19 C 184.25 141.08 179.68 139.53 176.16 140.00 C 176.71 138.49 177.22 136.98 177.76 135.48 Z" />
</g>
<g id="#2a231aff">
<path fill="#2a231a" opacity="1.00" d=" M 135.89 121.74 C 137.36 121.93 145.03 117.45 143.87 121.81 C 137.98 124.94 129.58 124.50 125.30 130.32 C 124.05 134.17 125.42 138.51 123.40 142.14 C 113.46 135.98 109.79 150.15 104.97 156.18 C 104.25 155.49 103.53 154.79 102.82 154.08 C 103.08 153.62 103.60 152.68 103.86 152.22 C 106.50 148.26 108.32 143.67 108.14 138.84 C 109.38 133.47 103.13 131.93 101.91 127.90 C 109.06 130.63 117.11 132.42 124.05 127.89 C 128.07 125.93 131.22 122.36 135.89 121.74 Z" />
</g>
<g id="#715e53ff">
<path fill="#715e53" opacity="1.00" d=" M 166.67 137.70 C 169.49 131.94 177.02 135.04 177.86 127.68 C 177.78 130.28 177.12 132.90 177.76 135.48 C 177.22 136.98 176.71 138.49 176.16 140.00 C 174.19 149.11 164.01 151.57 156.13 152.47 C 155.18 148.92 156.02 145.02 153.95 141.78 C 158.23 140.50 163.89 141.93 166.67 137.70 Z" />
</g>
<g id="#d4a58dff">
<path fill="#d4a58d" opacity="1.00" d=" M 59.70 132.07 C 66.08 127.84 73.55 133.05 80.31 132.97 C 78.29 135.38 75.81 137.32 73.14 138.96 C 68.17 138.34 61.89 137.19 59.70 132.07 Z" />
</g>
<g id="#936a61a2">
<path fill="#936a61" opacity="0.64" d=" M 40.62 144.31 C 39.27 139.86 40.31 135.11 40.82 130.61 C 40.87 135.17 40.80 139.74 40.62 144.31 Z" />
</g>
<g id="#d4aa93fc">
<path fill="#d4aa93" opacity="1.00" d=" M 40.82 130.61 L 41.61 131.27 C 46.40 138.85 52.29 145.24 56.51 153.19 C 57.26 154.42 58.02 155.65 58.79 156.87 C 57.44 157.53 55.23 157.88 56.04 159.90 C 59.87 165.27 64.10 170.62 65.87 177.12 C 67.43 183.73 74.90 185.62 79.09 190.20 C 81.94 187.90 83.12 182.10 87.72 183.16 C 89.44 184.88 90.68 186.99 92.11 188.94 C 89.68 188.78 86.94 188.68 88.01 191.93 C 92.56 192.04 97.12 192.05 101.67 192.03 C 102.89 193.92 104.49 195.52 105.76 197.37 C 109.94 207.68 95.44 198.01 96.99 206.80 C 100.72 208.35 104.30 210.13 107.67 212.37 C 110.85 214.49 112.75 209.37 116.07 209.83 C 114.48 213.13 108.99 217.75 115.33 219.43 C 113.37 223.33 108.87 223.79 105.54 225.93 C 100.79 222.64 96.52 214.35 89.99 215.75 C 86.36 212.41 83.19 208.69 80.67 204.44 C 79.87 203.19 78.86 205.44 77.98 205.72 C 77.78 204.32 77.38 201.52 77.18 200.12 C 75.75 198.45 74.32 196.78 72.92 195.09 C 73.43 193.22 71.95 191.58 70.04 191.92 C 61.73 182.70 58.92 170.47 52.98 159.95 C 52.29 158.30 50.19 158.79 48.89 159.26 C 44.79 155.24 42.12 149.80 40.62 144.31 C 40.80 139.74 40.87 135.17 40.82 130.61 Z" />
</g>
<g id="#9c6e5bff">
<path fill="#9c6e5b" opacity="1.00" d=" M 55.93 134.52 C 57.03 133.49 58.36 132.75 59.70 132.07 C 61.89 137.19 68.17 138.34 73.14 138.96 C 73.11 140.34 73.08 141.71 73.04 143.09 C 66.52 146.01 61.24 137.46 55.93 134.52 Z" />
</g>
<g id="#c08f77ff">
<path fill="#c08f77" opacity="1.00" d=" M 80.31 132.97 C 85.25 132.59 89.84 134.13 94.25 136.19 C 91.22 142.35 83.52 140.81 77.80 141.06 C 75.87 140.74 74.10 141.42 73.04 143.09 C 73.08 141.71 73.11 140.34 73.14 138.96 C 75.81 137.32 78.29 135.38 80.31 132.97 Z" />
</g>
<g id="#e2b7a1ff">
<path fill="#e2b7a1" opacity="1.00" d=" M 58.91 151.80 C 57.69 146.34 51.75 140.06 55.93 134.52 C 61.24 137.46 66.52 146.01 73.04 143.09 C 74.10 141.42 75.87 140.74 77.80 141.06 C 85.94 143.85 85.79 152.27 85.38 159.47 C 75.99 161.03 64.21 161.40 58.91 151.80 Z" />
</g>
<g id="#cea189ff">
<path fill="#cea189" opacity="1.00" d=" M 94.25 136.19 C 97.62 136.62 100.77 137.93 104.01 138.88 C 106.95 143.22 96.86 150.58 103.86 152.22 C 103.60 152.68 103.08 153.62 102.82 154.08 C 97.83 157.98 91.55 159.07 85.38 159.47 C 85.79 152.27 85.94 143.85 77.80 141.06 C 83.52 140.81 91.22 142.35 94.25 136.19 Z" />
</g>
<g id="#725b4bff">
<path fill="#725b4b" opacity="1.00" d=" M 104.01 138.88 C 105.36 138.34 106.77 138.35 108.14 138.84 C 108.32 143.67 106.50 148.26 103.86 152.22 C 96.86 150.58 106.95 143.22 104.01 138.88 Z" />
</g>
<g id="#f7d0bdff">
<path fill="#f7d0bd" opacity="1.00" d=" M 104.97 156.18 C 109.79 150.15 113.46 135.98 123.40 142.14 C 123.76 148.03 125.73 153.48 128.89 158.40 C 131.44 163.55 125.85 167.61 123.82 171.83 C 123.09 172.57 122.37 173.32 121.65 174.07 C 116.17 174.74 109.35 169.82 104.79 174.86 C 99.90 181.30 92.19 176.43 90.98 169.88 C 91.68 168.64 92.40 167.42 93.16 166.22 C 97.86 164.03 102.05 160.47 104.97 156.18 Z" />
</g>
<g id="#5e453cfb">
<path fill="#5e453c" opacity="1.00" d=" M 176.16 140.00 C 179.68 139.53 184.25 141.08 184.41 145.19 C 183.03 150.46 180.15 155.16 178.25 160.25 C 181.04 155.35 175.48 147.57 170.64 152.64 C 168.32 156.16 165.67 157.83 161.69 158.85 C 154.97 160.19 149.37 155.71 142.98 154.87 C 142.73 154.44 142.24 153.57 141.99 153.14 C 146.68 152.92 151.48 153.42 156.13 152.47 C 164.01 151.57 174.19 149.11 176.16 140.00 Z" />
</g>
<g id="#b5846fff">
<path fill="#b5846f" opacity="1.00" d=" M 139.25 142.20 C 144.12 141.59 149.05 142.04 153.95 141.78 C 156.02 145.02 155.18 148.92 156.13 152.47 C 151.48 153.42 146.68 152.92 141.99 153.14 L 141.19 153.00 C 140.87 149.41 135.63 145.32 139.25 142.20 Z" />
</g>
<g id="#51362dff">
<path fill="#51362d" opacity="1.00" d=" M 131.75 150.16 C 134.85 151.25 137.87 152.71 141.19 153.00 L 141.99 153.14 C 142.24 153.57 142.73 154.44 142.98 154.87 C 142.41 159.55 148.16 160.53 150.82 163.14 C 154.87 165.92 157.37 170.36 161.14 173.49 C 161.17 175.93 161.10 178.37 160.93 180.81 C 153.72 181.38 149.19 189.18 141.56 189.56 C 138.67 190.23 130.68 190.09 132.04 185.10 C 137.17 182.83 143.43 185.18 148.28 182.24 C 150.61 180.66 147.22 178.74 145.69 178.34 C 140.20 177.90 134.68 178.68 129.20 179.00 C 128.20 178.75 127.20 178.51 126.19 178.28 C 124.21 177.45 123.03 175.60 121.65 174.07 C 122.37 173.32 123.09 172.57 123.82 171.83 C 129.41 170.34 143.30 173.07 141.00 163.08 C 140.48 160.82 138.21 159.56 136.69 157.99 C 141.62 153.11 134.04 153.62 131.75 150.16 Z" />
</g>
<g id="#6b5746fc">
<path fill="#6b5746" opacity="1.00" d=" M 170.64 152.64 C 175.48 147.57 181.04 155.35 178.25 160.25 C 178.22 171.26 167.96 181.41 173.25 191.85 C 172.80 192.98 172.34 194.11 171.88 195.24 C 170.03 193.57 169.51 189.56 166.41 190.09 C 165.73 193.18 164.60 196.15 163.07 198.92 C 162.13 198.59 161.17 198.31 160.20 198.08 C 155.43 207.30 148.37 215.27 140.84 222.32 C 136.48 224.21 131.88 225.50 127.21 226.37 C 119.10 226.51 124.89 220.87 126.87 216.85 C 128.20 215.88 129.57 214.97 130.99 214.13 C 133.76 219.91 140.97 217.95 145.71 215.72 C 146.55 212.09 148.75 207.83 146.56 204.44 C 142.57 200.08 148.28 192.46 153.60 193.61 C 155.54 189.06 158.51 185.09 160.93 180.81 C 161.10 178.37 161.17 175.93 161.14 173.49 C 164.82 169.53 161.45 163.68 161.69 158.85 C 165.67 157.83 168.32 156.16 170.64 152.64 Z" />
</g>
<g id="#936553ff">
<path fill="#936553" opacity="1.00" d=" M 56.51 153.19 C 57.11 152.84 58.31 152.15 58.91 151.80 C 64.21 161.40 75.99 161.03 85.38 159.47 C 91.55 159.07 97.83 157.98 102.82 154.08 C 103.53 154.79 104.25 155.49 104.97 156.18 C 102.05 160.47 97.86 164.03 93.16 166.22 C 90.04 165.52 86.87 165.02 83.79 164.17 C 75.67 160.82 65.50 163.87 58.79 156.87 C 58.02 155.65 57.26 154.42 56.51 153.19 Z" />
</g>
<g id="#bb907aff">
<path fill="#bb907a" opacity="1.00" d=" M 142.98 154.87 C 149.37 155.71 154.97 160.19 161.69 158.85 C 161.45 163.68 164.82 169.53 161.14 173.49 C 157.37 170.36 154.87 165.92 150.82 163.14 C 148.16 160.53 142.41 159.55 142.98 154.87 Z" />
</g>
<g id="#e8bfabff">
<path fill="#e8bfab" opacity="1.00" d=" M 56.04 159.90 C 55.23 157.88 57.44 157.53 58.79 156.87 C 65.50 163.87 75.67 160.82 83.79 164.17 C 87.52 166.13 83.02 172.18 87.98 172.07 C 89.44 172.41 90.04 170.63 90.98 169.88 C 92.19 176.43 99.90 181.30 104.79 174.86 C 109.44 176.08 114.37 175.58 118.93 177.33 C 119.24 179.55 117.44 181.21 116.49 183.03 C 115.17 184.61 113.91 186.24 112.72 187.92 C 105.89 188.72 98.99 189.19 92.11 188.94 C 90.68 186.99 89.44 184.88 87.72 183.16 C 83.12 182.10 81.94 187.90 79.09 190.20 C 74.90 185.62 67.43 183.73 65.87 177.12 C 64.10 170.62 59.87 165.27 56.04 159.90 Z" />
</g>
<g id="#6e4f44ff">
<path fill="#6e4f44" opacity="1.00" d=" M 128.89 158.40 C 131.50 158.44 134.08 158.14 136.69 157.99 C 138.21 159.56 140.48 160.82 141.00 163.08 C 143.30 173.07 129.41 170.34 123.82 171.83 C 125.85 167.61 131.44 163.55 128.89 158.40 Z" />
</g>
<g id="#84685e91">
<path fill="#84685e" opacity="0.57" d=" M 48.89 159.26 C 50.19 158.79 52.29 158.30 52.98 159.95 C 51.62 160.29 49.86 160.53 48.89 159.26 Z" />
</g>
<g id="#c28c77ff">
<path fill="#c28c77" opacity="1.00" d=" M 83.79 164.17 C 86.87 165.02 90.04 165.52 93.16 166.22 C 92.40 167.42 91.68 168.64 90.98 169.88 C 90.04 170.63 89.44 172.41 87.98 172.07 C 83.02 172.18 87.52 166.13 83.79 164.17 Z" />
</g>
<g id="#b07d67ff">
<path fill="#b07d67" opacity="1.00" d=" M 104.79 174.86 C 109.35 169.82 116.17 174.74 121.65 174.07 C 123.03 175.60 124.21 177.45 126.19 178.28 C 124.83 181.95 120.26 185.18 116.49 183.03 C 117.44 181.21 119.24 179.55 118.93 177.33 C 114.37 175.58 109.44 176.08 104.79 174.86 Z" />
</g>
<g id="#d79e87ff">
<path fill="#d79e87" opacity="1.00" d=" M 126.19 178.28 C 127.20 178.51 128.20 178.75 129.20 179.00 C 129.13 182.25 128.75 186.24 125.13 187.43 C 121.00 187.72 116.86 187.82 112.72 187.92 C 113.91 186.24 115.17 184.61 116.49 183.03 C 120.26 185.18 124.83 181.95 126.19 178.28 Z" />
</g>
<g id="#64483cff">
<path fill="#64483c" opacity="1.00" d=" M 129.20 179.00 C 134.68 178.68 140.20 177.90 145.69 178.34 C 147.22 178.74 150.61 180.66 148.28 182.24 C 143.43 185.18 137.17 182.83 132.04 185.10 C 130.68 190.09 138.67 190.23 141.56 189.56 C 149.19 189.18 153.72 181.38 160.93 180.81 C 158.51 185.09 155.54 189.06 153.60 193.61 C 148.28 192.46 142.57 200.08 146.56 204.44 C 148.75 207.83 146.55 212.09 145.71 215.72 C 140.97 217.95 133.76 219.91 130.99 214.13 C 132.78 211.18 133.00 204.65 128.02 206.33 C 126.35 204.51 127.38 202.19 128.08 200.21 C 133.24 199.64 135.77 194.29 131.33 190.79 C 128.50 189.66 123.56 192.46 125.13 187.43 C 128.75 186.24 129.13 182.25 129.20 179.00 Z" />
</g>
<g id="#b66f66ff">
<path fill="#b66f66" opacity="1.00" d=" M 112.72 187.92 C 116.86 187.82 121.00 187.72 125.13 187.43 C 123.56 192.46 128.50 189.66 131.33 190.79 C 135.77 194.29 133.24 199.64 128.08 200.21 C 125.36 200.50 122.63 200.69 119.92 200.94 C 123.95 188.58 108.33 192.15 101.67 192.03 C 97.12 192.05 92.56 192.04 88.01 191.93 C 86.94 188.68 89.68 188.78 92.11 188.94 C 98.99 189.19 105.89 188.72 112.72 187.92 Z" />
</g>
<g id="#747a7dff">
<path fill="#747a7d" opacity="1.00" d=" M 166.41 190.09 C 169.51 189.56 170.03 193.57 171.88 195.24 C 174.66 201.57 175.14 208.44 175.37 215.26 C 174.99 217.29 174.48 219.30 174.00 221.31 C 172.73 220.58 171.49 219.81 170.31 218.96 C 169.82 217.38 169.16 215.86 168.34 214.43 C 166.65 210.64 165.55 206.29 162.05 203.71 C 162.33 202.10 162.69 200.51 163.07 198.92 C 164.60 196.15 165.73 193.18 166.41 190.09 Z" />
</g>
<g id="#ca8f7dff">
<path fill="#ca8f7d" opacity="1.00" d=" M 101.67 192.03 C 108.33 192.15 123.95 188.58 119.92 200.94 C 115.05 208.63 123.70 210.32 128.02 206.33 C 133.00 204.65 132.78 211.18 130.99 214.13 C 129.57 214.97 128.20 215.88 126.87 216.85 C 122.80 216.55 118.47 216.51 115.33 219.43 C 108.99 217.75 114.48 213.13 116.07 209.83 C 112.75 209.37 110.85 214.49 107.67 212.37 C 104.30 210.13 100.72 208.35 96.99 206.80 C 95.44 198.01 109.94 207.68 105.76 197.37 C 104.49 195.52 102.89 193.92 101.67 192.03 Z" />
</g>
<g id="#7d655795">
<path fill="#7d6557" opacity="0.58" d=" M 70.04 191.92 C 71.95 191.58 73.43 193.22 72.92 195.09 C 71.51 194.50 70.44 193.40 70.04 191.92 Z" />
</g>
<g id="#2a4159f8">
<path fill="#2a4159" opacity="0.97" d=" M 173.25 191.85 C 179.98 193.80 186.51 196.45 192.09 200.79 C 192.57 201.12 193.52 201.78 194.00 202.11 C 193.34 203.40 192.69 204.69 192.05 205.99 C 186.47 203.67 181.60 206.61 176.25 207.71 C 175.95 210.18 175.90 212.79 175.37 215.26 C 175.14 208.44 174.66 201.57 171.88 195.24 C 172.34 194.11 172.80 192.98 173.25 191.85 Z" />
</g>
<g id="#2c281eff">
<path fill="#2c281e" opacity="1.00" d=" M 160.20 198.08 C 161.17 198.31 162.13 198.59 163.07 198.92 C 162.69 200.51 162.33 202.10 162.05 203.71 C 157.87 209.60 155.62 216.51 152.57 222.99 C 150.02 228.14 142.97 227.27 140.84 222.32 C 148.37 215.27 155.43 207.30 160.20 198.08 Z" />
</g>
<g id="#897062a5">
<path fill="#897062" opacity="0.65" d=" M 77.18 200.12 C 77.38 201.52 77.78 204.32 77.98 205.72 L 77.50 206.10 C 76.34 204.28 76.40 202.05 77.18 200.12 Z" />
</g>
<g id="#845a47ff">
<path fill="#845a47" opacity="1.00" d=" M 119.92 200.94 C 122.63 200.69 125.36 200.50 128.08 200.21 C 127.38 202.19 126.35 204.51 128.02 206.33 C 123.70 210.32 115.05 208.63 119.92 200.94 Z" />
</g>
<g id="#363d218e">
<path fill="#363d21" opacity="0.56" d=" M 226.75 200.75 C 230.67 199.47 234.95 200.36 239.00 199.94 L 239.00 201.01 C 234.91 200.91 230.82 200.83 226.75 200.75 Z" />
</g>
<g id="#25293373">
<path fill="#252933" opacity="0.45" d=" M 192.09 200.79 C 194.71 201.22 197.30 201.64 199.93 202.09 C 197.95 202.01 195.97 202.06 194.00 202.11 C 193.52 201.78 192.57 201.12 192.09 200.79 Z" />
</g>
<g id="#3f4551a1">
<path fill="#3f4551" opacity="0.63" d=" M 199.93 202.09 C 202.78 201.28 205.78 200.70 208.25 202.78 C 205.43 202.75 202.54 203.32 199.93 202.09 Z" />
</g>
<g id="#597739fe">
<path fill="#597739" opacity="1.00" d=" M 220.25 203.24 C 222.41 202.41 224.54 201.48 226.75 200.75 C 230.82 200.83 234.91 200.91 239.00 201.01 L 239.00 212.93 C 230.92 209.00 231.47 216.48 228.72 221.69 C 226.14 221.76 223.83 219.97 221.20 220.02 C 219.80 221.94 219.03 224.20 218.20 226.41 C 212.95 221.48 205.01 223.93 199.69 219.68 C 205.13 213.70 210.92 207.98 218.15 204.13 C 218.68 203.91 219.72 203.46 220.25 203.24 Z" />
</g>
<g id="#57657afd">
<path fill="#57657a" opacity="1.00" d=" M 194.00 202.11 C 195.97 202.06 197.95 202.01 199.93 202.09 C 202.54 203.32 205.43 202.75 208.25 202.78 L 209.09 203.07 L 209.34 204.04 C 204.71 207.85 199.94 211.49 195.33 215.34 C 190.36 213.72 189.07 210.42 192.05 205.99 C 192.69 204.69 193.34 203.40 194.00 202.11 Z" />
</g>
<g id="#0c0f0d62">
<path fill="#0c0f0d" opacity="0.38" d=" M 209.09 203.07 C 212.81 203.03 216.51 203.14 220.25 203.24 C 219.72 203.46 218.68 203.91 218.15 204.13 C 215.19 204.11 212.28 204.05 209.34 204.04 L 209.09 203.07 Z" />
</g>
<g id="#c1becaff">
<path fill="#c1beca" opacity="1.00" d=" M 77.98 205.72 C 78.86 205.44 79.87 203.19 80.67 204.44 C 83.19 208.69 86.36 212.41 89.99 215.75 C 91.76 218.74 93.62 221.68 95.27 224.75 C 93.14 224.89 91.01 225.05 88.87 225.13 C 86.31 224.24 83.41 221.94 80.90 224.21 C 76.10 223.60 80.01 218.64 77.23 216.01 C 77.57 212.98 78.24 209.94 77.62 206.92 L 77.50 206.10 L 77.98 205.72 Z" />
</g>
<g id="#47606aff">
<path fill="#47606a" opacity="1.00" d=" M 162.05 203.71 C 165.55 206.29 166.65 210.64 168.34 214.43 C 162.82 216.14 159.25 221.74 156.01 226.29 C 154.73 225.33 153.35 224.42 152.57 222.99 C 155.62 216.51 157.87 209.60 162.05 203.71 Z" />
</g>
<g id="#13221afe">
<path fill="#13221a" opacity="1.00" d=" M 209.34 204.04 C 212.28 204.05 215.19 204.11 218.15 204.13 C 210.92 207.98 205.13 213.70 199.69 219.68 C 197.00 220.81 195.65 223.41 194.47 225.90 C 191.65 229.82 188.84 233.76 186.52 238.00 L 177.65 238.00 C 182.25 229.43 189.84 223.21 195.33 215.34 C 199.94 211.49 204.71 207.85 209.34 204.04 Z" />
</g>
<g id="#203641ff">
<path fill="#203641" opacity="1.00" d=" M 176.25 207.71 C 181.60 206.61 186.47 203.67 192.05 205.99 C 189.07 210.42 190.36 213.72 195.33 215.34 C 189.84 223.21 182.25 229.43 177.65 238.00 L 166.78 238.00 C 168.59 232.18 172.43 227.18 174.00 221.31 C 174.48 219.30 174.99 217.29 175.37 215.26 C 175.90 212.79 175.95 210.18 176.25 207.71 Z" />
</g>
<g id="#ebe7e5f5">
<path fill="#ebe7e5" opacity="0.96" d=" M 77.62 206.92 C 78.24 209.94 77.57 212.98 77.23 216.01 C 73.41 220.09 69.38 216.82 67.62 212.71 C 70.83 210.56 74.65 209.43 77.62 206.92 Z" />
</g>
<g id="#d7ed6eff">
<path fill="#d7ed6e" opacity="1.00" d=" M 228.72 221.69 C 231.47 216.48 230.92 209.00 239.00 212.93 L 239.00 224.58 C 236.00 228.72 232.84 232.94 231.59 238.00 L 200.60 238.00 C 204.21 237.31 210.61 237.00 210.32 231.76 C 214.24 232.62 218.77 231.31 218.20 226.41 C 219.03 224.20 219.80 221.94 221.20 220.02 C 223.83 219.97 226.14 221.76 228.72 221.69 Z" />
</g>
<g id="#aacce0fb">
<path fill="#aacce0" opacity="1.00" d=" M 51.04 225.25 C 57.49 222.34 61.45 216.06 67.62 212.71 C 69.38 216.82 73.41 220.09 77.23 216.01 C 80.01 218.64 76.10 223.60 80.90 224.21 C 80.08 225.69 79.32 227.22 79.15 228.93 C 75.84 230.62 72.99 224.75 69.26 224.24 C 67.77 225.56 66.44 227.06 65.02 228.46 C 63.49 227.35 63.50 225.64 63.65 223.95 C 59.34 223.42 58.09 228.17 60.19 231.24 C 59.33 232.22 58.48 233.21 57.65 234.21 C 54.78 233.06 52.26 231.24 50.03 229.13 C 50.33 228.04 50.61 226.95 50.88 225.86 L 51.04 225.25 Z" />
</g>
<g id="#352d24ff">
<path fill="#352d24" opacity="1.00" d=" M 89.99 215.75 C 96.52 214.35 100.79 222.64 105.54 225.93 C 107.47 228.41 109.24 231.14 111.79 233.04 C 114.68 234.68 117.61 236.24 120.43 238.00 L 107.55 238.00 C 103.60 233.45 99.03 229.47 95.27 224.75 C 93.62 221.68 91.76 218.74 89.99 215.75 Z" />
</g>
<g id="#193845ff">
<path fill="#193845" opacity="1.00" d=" M 156.01 226.29 C 159.25 221.74 162.82 216.14 168.34 214.43 C 169.16 215.86 169.82 217.38 170.31 218.96 C 167.19 225.20 163.76 231.34 161.61 238.00 L 148.48 238.00 C 150.55 233.78 154.65 230.91 156.01 226.29 Z" />
</g>
<g id="#af846dff">
<path fill="#af846d" opacity="1.00" d=" M 115.33 219.43 C 118.47 216.51 122.80 216.55 126.87 216.85 C 124.89 220.87 119.10 226.51 127.21 226.37 C 126.02 227.90 124.83 229.43 123.65 230.98 C 119.51 230.44 115.51 231.34 111.79 233.04 C 109.24 231.14 107.47 228.41 105.54 225.93 C 108.87 223.79 113.37 223.33 115.33 219.43 Z" />
</g>
<g id="#2f525aff">
<path fill="#2f525a" opacity="1.00" d=" M 170.31 218.96 C 171.49 219.81 172.73 220.58 174.00 221.31 C 172.43 227.18 168.59 232.18 166.78 238.00 L 161.61 238.00 C 163.76 231.34 167.19 225.20 170.31 218.96 Z" />
</g>
<g id="#4a6e26ff">
<path fill="#4a6e26" opacity="1.00" d=" M 194.47 225.90 C 195.65 223.41 197.00 220.81 199.69 219.68 C 205.01 223.93 212.95 221.48 218.20 226.41 C 218.77 231.31 214.24 232.62 210.32 231.76 C 205.21 229.37 200.01 227.09 194.47 225.90 Z" />
</g>
<g id="#453a33ff">
<path fill="#453a33" opacity="1.00" d=" M 127.21 226.37 C 131.88 225.50 136.48 224.21 140.84 222.32 C 142.97 227.27 150.02 228.14 152.57 222.99 C 153.35 224.42 154.73 225.33 156.01 226.29 C 154.65 230.91 150.55 233.78 148.48 238.00 L 134.59 238.00 C 131.44 234.88 124.27 236.20 123.65 230.98 C 124.83 229.43 126.02 227.90 127.21 226.37 Z" />
</g>
<g id="#4f87a9ff">
<path fill="#4f87a9" opacity="1.00" d=" M 80.90 224.21 C 83.41 221.94 86.31 224.24 88.87 225.13 C 92.83 228.26 93.85 233.35 92.02 238.00 L 84.42 238.00 C 82.15 235.30 80.07 232.39 79.15 228.93 C 79.32 227.22 80.08 225.69 80.90 224.21 Z" />
</g>
<g id="#86a5bfff">
<path fill="#86a5bf" opacity="1.00" d=" M 60.19 231.24 C 58.09 228.17 59.34 223.42 63.65 223.95 C 63.50 225.64 63.49 227.35 65.02 228.46 C 63.77 229.94 62.12 230.95 60.19 231.24 Z" />
</g>
<g id="#41a8c9ff">
<path fill="#41a8c9" opacity="1.00" d=" M 69.26 224.24 C 72.99 224.75 75.84 230.62 79.15 228.93 C 80.07 232.39 82.15 235.30 84.42 238.00 L 76.44 238.00 C 75.99 230.95 69.85 235.77 66.62 238.00 L 61.34 238.00 C 60.12 236.73 58.90 235.45 57.65 234.21 C 58.48 233.21 59.33 232.22 60.19 231.24 C 62.12 230.95 63.77 229.94 65.02 228.46 C 66.44 227.06 67.77 225.56 69.26 224.24 Z" />
</g>
<g id="#3e3e457c">
<path fill="#3e3e45" opacity="0.49" d=" M 45.77 225.84 C 47.29 224.68 49.29 224.59 51.04 225.25 L 50.88 225.86 C 49.20 226.35 47.45 226.20 45.77 225.84 Z" />
</g>
<g id="#aecbdfff">
<path fill="#aecbdf" opacity="1.00" d=" M 88.87 225.13 C 91.01 225.05 93.14 224.89 95.27 224.75 C 99.03 229.47 103.60 233.45 107.55 238.00 L 92.02 238.00 C 93.85 233.35 92.83 228.26 88.87 225.13 Z" />
</g>
<g id="#434e33ff">
<path fill="#434e33" opacity="1.00" d=" M 231.59 238.00 C 232.84 232.94 236.00 228.72 239.00 224.58 L 239.00 230.64 C 237.28 232.94 235.33 235.17 234.53 238.00 L 231.59 238.00 Z" />
</g>
<g id="#2524136e">
<path fill="#252413" opacity="0.43" d=" M 29.90 226.84 C 33.64 226.17 37.42 225.96 41.23 226.20 C 38.76 226.57 36.29 226.91 33.81 227.22 C 32.51 227.07 31.20 226.95 29.90 226.84 Z" />
</g>
<g id="#313a2efc">
<path fill="#313a2e" opacity="1.00" d=" M 41.23 226.20 C 42.74 226.07 44.26 225.96 45.77 225.84 C 46.20 227.92 48.44 228.25 50.03 229.13 C 52.26 231.24 54.78 233.06 57.65 234.21 C 58.90 235.45 60.12 236.73 61.34 238.00 L 51.47 238.00 C 46.05 233.72 40.53 229.23 33.81 227.22 C 36.29 226.91 38.76 226.57 41.23 226.20 Z" />
</g>
<g id="#69747ff6">
<path fill="#69747f" opacity="0.96" d=" M 45.77 225.84 C 47.45 226.20 49.20 226.35 50.88 225.86 C 50.61 226.95 50.33 228.04 50.03 229.13 C 48.44 228.25 46.20 227.92 45.77 225.84 Z" />
</g>
<g id="#64852eff">
<path fill="#64852e" opacity="1.00" d=" M 186.52 238.00 C 188.84 233.76 191.65 229.82 194.47 225.90 C 200.01 227.09 205.21 229.37 210.32 231.76 C 210.61 237.00 204.21 237.31 200.60 238.00 L 186.52 238.00 Z" />
</g>
<g id="#c6d963f9">
<path fill="#c6d963" opacity="0.98" d=" M 9.51 238.00 C 15.47 232.95 23.14 230.62 29.90 226.84 C 31.20 226.95 32.51 227.07 33.81 227.22 C 40.53 229.23 46.05 233.72 51.47 238.00 L 9.51 238.00 Z" />
</g>
<g id="#886752ff">
<path fill="#886752" opacity="1.00" d=" M 111.79 233.04 C 115.51 231.34 119.51 230.44 123.65 230.98 C 124.27 236.20 131.44 234.88 134.59 238.00 L 120.43 238.00 C 117.61 236.24 114.68 234.68 111.79 233.04 Z" />
</g>
<g id="#f3f6f5ff">
<path fill="#f3f6f5" opacity="1.00" d=" M 234.53 238.00 C 235.33 235.17 237.28 232.94 239.00 230.64 L 239.00 238.00 L 234.53 238.00 Z" />
</g>
<g id="#97c4d9ff">
<path fill="#97c4d9" opacity="1.00" d=" M 66.62 238.00 C 69.85 235.77 75.99 230.95 76.44 238.00 L 66.62 238.00 Z" />
</g>
</svg>
